 <svg xmlns="http://www.w3.org/2000/svg" viewBox="0 0 353.75 202.23" className="w-12 text-white" > <g id="Layer_2" data-name="Layer 2"> <g id="Layer_1-2" data-name="Layer 1"> <rect fill="#fc3" y="0.23" width="60.65" height="202" /> <rect fill="#36c" x="27" y="0.23" width="43.96" height="202" /> <path fill="currentColor" d="M60.58,0H92q28.64,0,42.55,6.19A51.13,51.13,0,0,1,157,25.43a50.55,50.55,0,0,1,8.53,28.18,49.6,49.6,0,0,1-6,23.86,51.86,51.86,0,0,1-17.39,18.76q27.13,18.84,27.13,50A54.18,54.18,0,0,1,160.6,176q-8.59,13.47-21.24,19.86t-36.57,6.4H33ZM76.12,166.34l22.76.83q17.15,0,25-6.74T131.66,142a25.85,25.85,0,0,0-17.73-24.74q-8-2.76-30.82-2.89Zm11.58-86h6.8q15.23,0,20.67-2.27a20.1,20.1,0,0,0,9.24-8.46,25.67,25.67,0,0,0,3.81-13.75,21.35,21.35,0,0,0-3.37-12.09A16.7,16.7,0,0,0,116,36.84q-5.48-1.79-22.22-1.78Z" /> <path fill="currentColor" d="M200.91,0h31.37q28.64,0,42.56,6.19a51.16,51.16,0,0,1,22.43,19.24,50.55,50.55,0,0,1,8.53,28.18,49.6,49.6,0,0,1-6,23.86,51.92,51.92,0,0,1-17.38,18.76q27.12,18.84,27.12,50a54.09,54.09,0,0,1-8.59,29.7q-8.6,13.47-21.24,19.86t-36.57,6.4H173.27Zm15.53,166.34,22.77.83q17.13,0,25-6.74T272,142a25.85,25.85,0,0,0-17.73-24.74q-8-2.76-30.82-2.89Zm11.58-86h6.8q15.23,0,20.67-2.27a20.1,20.1,0,0,0,9.24-8.46,25.67,25.67,0,0,0,3.81-13.75,21.35,21.35,0,0,0-3.37-12.09,16.66,16.66,0,0,0-8.85-6.88q-5.48-1.79-22.22-1.78Z" /> <circle fill="currentColor" cx="334.75" cy="183.23" r="19" /> </g> </g> </svg>